<svg width="14" height="16" viewBox="0 0 14 16" fill="none" xmlns="http://www.w3.org/2000/svg">
<path d="M7.00071 0C6.44758 0 6.00071 0.446875 6.00071 1V1.6C3.71946 2.0625 2.00071 4.08125 2.00071 6.5V7.29375C2.00071 8.7125 1.51633 10.0906 0.631955 11.1969L0.16633 11.7812C-0.01492 12.0063 -0.049295 12.3156 0.075705 12.575C0.200705 12.8344 0.463205 13 0.750705 13H13.2507C13.5382 13 13.8007 12.8344 13.9257 12.575C14.0507 12.3156 14.0163 12.0063 13.8351 11.7812L13.3695 11.2C12.4851 10.0906 12.0007 8.7125 12.0007 7.29375V6.5C12.0007 4.08125 10.282 2.0625 8.00071 1.6V1C8.00071 0.446875 7.55383 0 7.00071 0ZM7.00071 3C8.93508 3 10.5007 4.56563 10.5007 6.5V7.29375C10.5007 8.79062 10.9351 10.25 11.7413 11.5H2.26008C3.06633 10.25 3.50071 8.79062 3.50071 7.29375V6.5C3.50071 4.56563 5.06633 3 7.00071 3ZM9.0007 14H7.00071H5.00071C5.00071 14.5312 5.21008 15.0406 5.58508 15.4156C5.96008 15.7906 6.46946 16 7.00071 16C7.53196 16 8.04133 15.7906 8.41633 15.4156C8.79133 15.0406 9.0007 14.5312 9.0007 14Z" fill="#1C1C1C"/>
</svg>
