<svg width="16" height="16" viewBox="0 0 16 16" fill="none" xmlns="http://www.w3.org/2000/svg">
<path d="M13.0012 6.49905C13.0012 7.93321 12.5357 9.25802 11.7514 10.3329L15.7071 14.2917C16.0976 14.6822 16.0976 15.3165 15.7071 15.7071C15.3165 16.0976 14.6822 16.0976 14.2916 15.7071L10.336 11.7483C9.26113 12.5357 7.93633 12.9981 6.50216 12.9981C2.91206 12.9981 0.00311279 10.0891 0.00311279 6.49905C0.00311279 2.90895 2.91206 0 6.50216 0C10.0923 0 13.0012 2.90895 13.0012 6.49905ZM6.50216 10.9984C7.09302 10.9984 7.6781 10.882 8.22398 10.6559C8.76987 10.4298 9.26587 10.0984 9.68367 9.68056C10.1015 9.26276 10.4329 8.76676 10.659 8.22087C10.8851 7.67499 11.0015 7.08991 11.0015 6.49905C11.0015 5.90819 10.8851 5.32311 10.659 4.77722C10.4329 4.23134 10.1015 3.73534 9.68367 3.31753C9.26587 2.89973 8.76987 2.56831 8.22398 2.3422C7.6781 2.11609 7.09302 1.99971 6.50216 1.99971C5.9113 1.99971 5.32622 2.11609 4.78034 2.3422C4.23445 2.56831 3.73845 2.89973 3.32065 3.31753C2.90284 3.73534 2.57142 4.23134 2.34531 4.77722C2.1192 5.32311 2.00282 5.90819 2.00282 6.49905C2.00282 7.08991 2.1192 7.67499 2.34531 8.22087C2.57142 8.76676 2.90284 9.26276 3.32065 9.68056C3.73845 10.0984 4.23445 10.4298 4.78034 10.6559C5.32622 10.882 5.9113 10.9984 6.50216 10.9984Z" fill="#1C1C1C"/>
</svg>
